<svg id="svg" version="1.1" xmlns="http://www.w3.org/2000/svg" xmlns:xlink="http://www.w3.org/1999/xlink" width="400" height="400" viewBox="0, 0, 400,400"><g id="svgg"><path id="path0" d="M91.800 101.662 C 85.834 102.836,86.400 100.391,86.400 125.000 C 86.400 149.727,85.759 147.161,92.237 148.371 C 99.228 149.677,300.772 149.677,307.763 148.371 C 314.241 147.161,313.600 149.727,313.600 125.000 C 313.600 100.273,314.241 102.839,307.763 101.629 C 300.968 100.359,98.259 100.391,91.800 101.662 M176.173 114.049 C 183.652 114.976,185.600 117.239,185.600 125.000 C 185.600 133.038,183.671 135.116,175.400 135.987 C 167.792 136.788,111.557 136.386,109.000 135.511 C 102.455 133.274,100.400 130.752,100.400 124.960 C 100.400 118.982,102.692 116.377,109.723 114.366 C 112.768 113.495,169.516 113.225,176.173 114.049 M291.713 114.778 C 299.301 116.719,300.994 118.806,300.559 125.686 C 300.231 130.879,299.341 132.353,295.550 133.983 C 288.553 136.993,283.500 136.258,279.048 131.582 L 276.800 129.221 276.800 125.003 L 276.800 120.785 278.900 118.558 C 282.907 114.309,286.144 113.354,291.713 114.778 M257.091 115.244 C 262.102 117.670,263.047 129.586,258.550 133.636 C 255.152 136.697,245.039 136.279,241.925 132.949 C 238.482 129.266,239.270 118.305,243.151 115.906 C 245.946 114.179,254.091 113.792,257.091 115.244 M91.047 176.836 C 85.979 177.915,86.425 175.675,86.425 200.000 C 86.425 224.432,85.921 222.073,91.386 223.197 C 97.520 224.459,302.480 224.459,308.614 223.197 C 314.079 222.073,313.575 224.432,313.575 200.000 C 313.575 175.568,314.079 177.927,308.614 176.803 C 302.680 175.582,96.791 175.614,91.047 176.836 M175.403 188.960 C 183.812 189.963,185.600 191.898,185.600 200.000 C 185.600 211.624,185.190 211.730,141.000 211.507 C 108.366 211.342,109.287 211.421,104.703 208.385 C 100.794 205.796,100.400 205.008,100.400 199.786 L 100.400 195.199 101.980 193.666 C 104.884 190.847,109.254 189.058,114.200 188.662 C 119.579 188.232,171.414 188.484,175.403 188.960 M291.600 189.778 C 295.436 190.605,298.261 192.159,299.722 194.245 L 300.875 195.890 300.585 200.364 C 300.225 205.905,299.702 206.855,296.000 208.685 C 289.218 212.037,284.088 211.447,279.371 206.771 L 276.800 204.223 276.800 200.000 L 276.800 195.777 279.300 193.334 C 280.675 191.990,282.249 190.660,282.798 190.379 C 284.178 189.671,287.275 188.854,288.000 189.006 C 288.330 189.075,289.950 189.422,291.600 189.778 M255.640 189.655 C 260.030 191.125,261.317 193.689,261.132 200.597 C 260.914 208.749,258.858 210.686,250.642 210.481 C 241.576 210.255,239.848 208.447,240.070 199.424 C 240.280 190.884,241.717 189.740,252.840 189.262 C 253.632 189.228,254.892 189.405,255.640 189.655 M91.800 251.662 C 85.834 252.836,86.400 250.391,86.400 275.000 C 86.400 299.727,85.759 297.161,92.237 298.371 C 99.228 299.677,300.772 299.677,307.763 298.371 C 314.241 297.161,313.600 299.727,313.600 275.000 C 313.600 250.273,314.241 252.839,307.763 251.629 C 300.968 250.359,98.259 250.391,91.800 251.662 M176.173 264.049 C 183.652 264.976,185.600 267.239,185.600 275.000 C 185.600 283.038,183.671 285.116,175.400 285.987 C 167.792 286.788,111.557 286.386,109.000 285.511 C 102.455 283.274,100.400 280.752,100.400 274.960 C 100.400 268.982,102.692 266.377,109.723 264.366 C 112.768 263.495,169.516 263.225,176.173 264.049 M291.713 264.778 C 299.301 266.719,300.994 268.806,300.559 275.686 C 300.231 280.879,299.341 282.353,295.550 283.983 C 288.553 286.993,283.500 286.258,279.048 281.582 L 276.800 279.221 276.800 275.003 L 276.800 270.785 278.900 268.558 C 282.907 264.309,286.144 263.354,291.713 264.778 M257.091 265.244 C 262.102 267.670,263.047 279.586,258.550 283.636 C 255.152 286.697,245.039 286.279,241.925 282.949 C 238.482 279.266,239.270 268.305,243.151 265.906 C 245.946 264.179,254.091 263.792,257.091 265.244 " stroke="none" fill="#f1f9f8" fill-rule="evenodd"></path><path id="path1" d="M90.851 70.432 C 88.221 70.686,87.332 70.937,86.712 71.602 C 85.633 72.760,74.699 75.200,70.587 75.200 C 69.907 75.200,67.161 78.316,66.775 79.526 C 65.786 82.631,65.071 83.658,62.959 85.009 C 60.479 86.595,59.598 88.086,58.394 92.732 C 57.436 96.428,57.359 156.459,58.308 160.400 C 58.636 161.763,58.604 163.170,58.178 166.200 C 57.359 172.017,57.360 227.997,58.179 233.780 C 58.629 236.952,58.647 238.211,58.272 239.980 C 57.932 241.579,57.800 251.103,57.800 274.000 L 57.800 305.800 58.904 309.057 C 59.807 311.721,60.302 312.559,61.626 313.657 C 65.367 316.761,65.883 317.393,66.546 319.675 C 67.149 321.749,69.699 324.800,70.830 324.800 C 74.916 324.800,85.607 327.212,86.695 328.379 C 88.137 329.927,91.849 329.979,200.000 329.979 C 308.151 329.979,311.863 329.927,313.305 328.379 C 314.446 327.155,315.501 326.861,322.766 325.745 C 330.994 324.481,332.294 323.693,333.564 319.200 C 334.062 317.435,336.122 314.800,337.004 314.800 C 338.433 314.800,340.514 311.246,341.622 306.913 C 342.675 302.796,342.821 248.226,341.797 241.434 C 341.300 238.136,341.284 237.023,341.700 234.834 C 342.417 231.056,342.417 168.944,341.700 165.166 C 341.284 162.977,341.300 161.864,341.797 158.566 C 342.821 151.774,342.675 97.204,341.622 93.087 C 340.514 88.754,338.433 85.200,337.004 85.200 C 336.122 85.200,334.062 82.565,333.564 80.800 C 332.294 76.307,330.994 75.519,322.766 74.255 C 315.501 73.139,314.446 72.845,313.305 71.621 C 312.686 70.956,311.748 70.716,308.567 70.406 C 303.719 69.935,95.750 69.959,90.851 70.432 M82.328 78.002 C 84.976 79.204,83.177 80.252,76.867 81.184 C 75.254 81.423,73.204 81.990,72.313 82.445 C 70.458 83.391,70.208 83.216,69.777 80.665 C 69.416 78.529,70.176 77.863,73.314 77.561 C 78.308 77.081,80.539 77.190,82.328 78.002 M325.977 77.594 C 330.259 78.087,330.662 78.442,330.009 81.163 C 329.740 82.283,329.454 83.200,329.372 83.200 C 329.291 83.200,328.544 82.846,327.712 82.412 C 326.881 81.979,324.850 81.436,323.200 81.205 C 320.513 80.829,316.850 79.870,315.815 79.270 C 315.139 78.879,319.336 77.210,321.000 77.208 C 321.880 77.207,324.120 77.381,325.977 77.594 M313.436 81.793 C 314.516 82.118,316.840 82.679,318.600 83.038 C 323.476 84.032,330.516 89.276,332.052 93.058 C 332.784 94.863,332.541 156.556,331.788 159.866 C 331.304 161.995,331.306 162.704,331.807 165.066 C 332.285 167.323,332.386 173.413,332.386 200.000 C 332.386 226.587,332.285 232.677,331.807 234.934 C 331.306 237.296,331.304 238.005,331.788 240.134 C 332.239 242.114,332.371 248.835,332.458 274.215 C 332.581 309.864,332.758 307.730,329.487 310.000 C 328.695 310.550,327.486 311.720,326.800 312.600 C 325.140 314.731,322.478 316.220,319.249 316.825 C 317.792 317.098,315.431 317.654,314.001 318.061 C 310.389 319.088,89.955 319.231,86.564 318.207 C 85.484 317.882,83.160 317.321,81.400 316.962 C 76.523 315.968,69.477 310.719,67.950 306.942 C 67.246 305.200,67.458 243.543,68.180 240.000 C 68.624 237.825,68.621 236.975,68.164 234.800 C 67.727 232.725,67.617 225.698,67.617 200.000 C 67.617 174.302,67.727 167.275,68.164 165.200 C 68.621 163.025,68.624 162.175,68.180 160.000 C 67.446 156.398,67.247 94.799,67.964 93.022 C 69.469 89.293,76.617 83.932,81.296 83.025 C 82.893 82.715,84.920 82.199,85.800 81.877 C 88.241 80.986,310.491 80.904,313.436 81.793 M64.787 93.736 C 65.392 96.654,65.142 158.724,64.516 160.899 C 64.202 161.990,64.209 162.862,64.542 164.099 C 65.190 166.507,65.190 233.493,64.542 235.901 C 64.209 237.138,64.202 238.010,64.516 239.101 C 65.122 241.206,65.394 303.338,64.810 306.154 C 64.575 307.284,63.973 308.722,63.472 309.350 L 62.561 310.493 61.181 307.546 L 59.800 304.600 59.800 274.600 C 59.800 245.147,59.816 244.533,60.673 240.942 C 61.471 237.598,61.499 237.101,60.993 235.142 C 59.782 230.458,59.600 225.866,59.600 200.000 C 59.600 174.134,59.782 169.542,60.993 164.857 C 61.497 162.906,61.471 162.405,60.708 159.257 C 59.910 155.968,59.862 154.537,59.712 129.800 C 59.534 100.238,59.745 95.389,61.369 91.800 L 62.455 89.400 63.396 90.486 C 63.914 91.083,64.540 92.546,64.787 93.736 M339.296 93.576 L 340.192 95.800 340.196 125.200 C 340.200 152.886,340.155 154.798,339.423 158.000 C 338.468 162.180,338.468 162.976,339.433 167.000 C 340.154 170.006,340.200 172.006,340.200 200.000 C 340.200 227.994,340.154 229.994,339.433 233.000 C 338.472 237.010,338.466 237.888,339.378 241.600 C 340.045 244.315,340.131 247.035,340.283 270.200 C 340.477 299.616,340.274 304.260,338.647 307.801 L 337.544 310.200 336.603 309.114 C 336.086 308.517,335.460 307.054,335.213 305.863 C 334.578 302.802,334.860 241.658,335.520 239.400 C 335.882 238.164,335.876 237.299,335.494 235.600 C 334.784 232.439,334.784 167.561,335.494 164.400 C 335.876 162.701,335.882 161.836,335.520 160.600 C 334.867 158.366,334.577 97.201,335.205 94.176 C 336.200 89.381,337.526 89.187,339.296 93.576 M90.600 95.028 C 86.278 96.191,83.868 98.309,82.680 101.987 C 81.666 105.125,81.649 144.822,82.660 147.952 C 83.953 151.954,85.954 153.623,91.189 155.063 L 94.594 156.000 200.000 156.000 L 305.406 156.000 308.811 155.063 C 317.933 152.553,318.000 152.334,318.000 125.000 C 318.000 97.666,317.933 97.447,308.811 94.937 L 305.406 94.000 199.803 94.029 L 94.200 94.059 90.600 95.028 M308.143 97.848 C 312.472 98.616,313.271 99.053,314.825 101.504 L 316.000 103.357 316.000 125.000 L 316.000 146.643 314.825 148.496 C 311.862 153.169,321.694 152.800,200.000 152.800 C 78.306 152.800,88.138 153.169,85.175 148.496 L 84.000 146.643 84.000 125.000 L 84.000 103.357 85.139 101.578 C 86.836 98.930,87.481 98.538,91.200 97.886 C 96.604 96.940,302.814 96.904,308.143 97.848 M112.531 116.418 C 110.353 116.848,108.716 117.716,106.776 119.469 L 105.200 120.893 105.200 124.968 C 105.200 129.681,105.686 130.461,110.000 132.672 L 112.200 133.800 140.800 133.933 C 183.141 134.130,182.800 134.202,182.800 125.017 C 182.800 115.862,183.470 116.012,142.600 116.056 C 126.980 116.074,113.449 116.236,112.531 116.418 M285.600 117.236 C 284.830 117.700,283.615 118.637,282.900 119.318 L 281.600 120.557 281.600 125.032 L 281.600 129.507 283.244 130.992 C 286.575 134.002,289.445 133.915,294.320 130.657 L 296.200 129.400 296.200 124.800 L 296.200 120.200 292.800 118.517 C 288.417 116.348,287.380 116.163,285.600 117.236 M249.000 117.183 C 243.679 117.689,242.800 118.797,242.800 125.000 C 242.800 131.468,243.393 132.120,249.929 132.831 C 256.715 133.569,258.400 131.970,258.400 124.794 L 258.400 120.263 256.593 118.531 C 254.615 116.636,254.666 116.645,249.000 117.183 M175.373 118.450 C 180.717 119.113,181.200 119.656,181.200 125.000 C 181.200 132.291,182.831 132.000,141.918 132.000 L 112.090 132.000 110.145 130.700 L 108.200 129.400 108.200 125.000 L 108.200 120.600 110.145 119.300 L 112.090 118.000 141.918 118.000 C 161.590 118.000,172.981 118.153,175.373 118.450 M291.175 119.787 L 293.200 120.813 293.200 125.022 L 293.200 129.231 290.333 130.605 L 287.466 131.979 285.633 130.663 L 283.800 129.347 283.687 125.087 L 283.573 120.827 285.466 119.454 C 287.549 117.942,287.531 117.941,291.175 119.787 M255.458 119.700 L 256.674 121.000 256.493 125.267 C 256.237 131.303,255.843 131.655,250.103 130.998 C 244.510 130.358,244.400 130.242,244.400 125.000 C 244.400 119.774,244.562 119.598,249.931 118.962 C 252.059 118.711,253.900 118.481,254.022 118.452 C 254.143 118.424,254.790 118.985,255.458 119.700 M91.223 169.904 C 82.095 172.215,82.000 172.525,82.000 200.000 C 82.000 227.586,82.070 227.811,91.423 230.120 L 95.800 231.201 200.000 231.201 L 304.200 231.201 308.577 230.120 C 317.930 227.811,318.000 227.586,318.000 200.000 C 318.000 172.414,317.930 172.189,308.577 169.880 L 304.200 168.799 199.800 168.823 L 95.400 168.846 91.223 169.904 M308.013 172.820 C 313.142 173.743,313.237 173.796,314.834 176.580 L 315.992 178.600 315.992 200.000 L 315.992 221.400 314.834 223.420 C 311.978 228.399,321.973 228.000,200.000 228.000 C 78.027 228.000,88.022 228.399,85.166 223.420 L 84.008 221.400 84.008 200.000 L 84.008 178.600 85.166 176.580 C 87.982 171.670,77.614 172.082,199.630 172.038 C 302.632 172.000,303.496 172.007,308.013 172.820 M110.200 192.202 C 109.100 192.737,107.525 193.733,106.700 194.416 L 105.200 195.658 105.200 200.000 L 105.200 204.342 106.681 205.562 C 107.495 206.234,109.120 207.237,110.292 207.791 L 112.422 208.800 142.382 208.800 C 177.574 208.800,178.884 208.710,181.410 206.109 L 182.800 204.677 182.800 200.000 L 182.800 195.323 181.410 193.891 C 178.879 191.286,177.587 191.197,142.271 191.215 L 112.200 191.229 110.200 192.202 M249.681 192.154 C 245.804 192.574,245.482 192.679,244.181 193.956 L 242.800 195.312 242.800 199.978 L 242.800 204.643 244.218 206.022 C 245.586 207.352,245.790 207.414,250.104 207.818 L 254.574 208.235 256.487 206.391 L 258.400 204.547 258.400 199.911 L 258.400 195.274 256.357 193.437 C 255.233 192.427,254.198 191.624,254.057 191.654 C 253.916 191.683,251.947 191.908,249.681 192.154 M284.738 192.792 C 281.562 194.896,281.560 194.901,281.687 200.230 L 281.800 204.968 283.800 206.483 C 287.041 208.936,289.605 208.727,294.520 205.610 L 296.400 204.418 296.400 200.000 L 296.400 195.582 294.520 194.390 C 289.985 191.514,287.323 191.079,284.738 192.792 M174.740 193.372 C 181.027 194.153,181.200 194.331,181.200 200.000 C 181.200 207.464,182.243 207.279,141.006 207.115 L 112.181 207.000 110.090 205.658 L 108.000 204.317 108.000 200.000 L 108.000 195.683 109.900 194.489 C 110.945 193.832,112.070 193.197,112.400 193.079 C 113.887 192.545,170.216 192.809,174.740 193.372 M290.600 194.511 L 293.000 195.800 293.000 200.000 L 293.000 204.200 290.288 205.561 C 287.307 207.059,286.884 207.012,284.654 204.945 C 283.588 203.956,283.022 197.032,283.906 195.786 C 285.734 193.211,287.539 192.867,290.600 194.511 M255.674 194.813 C 256.562 195.701,256.823 196.263,256.649 196.913 C 256.518 197.401,256.408 199.363,256.405 201.273 C 256.398 206.188,255.771 206.642,249.905 205.991 C 244.502 205.390,244.400 205.277,244.400 199.818 C 244.400 194.830,244.571 194.607,248.803 194.078 C 253.952 193.434,254.337 193.476,255.674 194.813 M90.600 245.028 C 86.278 246.191,83.868 248.309,82.680 251.987 C 81.666 255.125,81.649 294.822,82.660 297.952 C 83.953 301.954,85.954 303.623,91.189 305.063 L 94.594 306.000 200.000 306.000 L 305.406 306.000 308.811 305.063 C 317.933 302.553,318.000 302.334,318.000 275.000 C 318.000 247.666,317.933 247.447,308.811 244.937 L 305.406 244.000 199.803 244.029 L 94.200 244.059 90.600 245.028 M308.143 247.848 C 312.472 248.616,313.271 249.053,314.825 251.504 L 316.000 253.357 316.000 275.000 L 316.000 296.643 314.825 298.496 C 311.862 303.169,321.694 302.800,200.000 302.800 C 78.306 302.800,88.138 303.169,85.175 298.496 L 84.000 296.643 84.000 275.000 L 84.000 253.357 85.139 251.578 C 86.836 248.930,87.481 248.538,91.200 247.886 C 96.604 246.940,302.814 246.904,308.143 247.848 M112.531 266.418 C 110.353 266.848,108.716 267.716,106.776 269.469 L 105.200 270.893 105.200 274.968 C 105.200 279.681,105.686 280.461,110.000 282.672 L 112.200 283.800 140.800 283.933 C 183.141 284.130,182.800 284.202,182.800 275.017 C 182.800 265.862,183.470 266.012,142.600 266.056 C 126.980 266.074,113.449 266.236,112.531 266.418 M285.600 267.236 C 284.830 267.700,283.615 268.637,282.900 269.318 L 281.600 270.557 281.600 275.032 L 281.600 279.507 283.244 280.992 C 286.575 284.002,289.445 283.915,294.320 280.657 L 296.200 279.400 296.200 274.800 L 296.200 270.200 292.800 268.517 C 288.417 266.348,287.380 266.163,285.600 267.236 M249.000 267.183 C 243.679 267.689,242.800 268.797,242.800 275.000 C 242.800 281.468,243.393 282.120,249.929 282.831 C 256.715 283.569,258.400 281.970,258.400 274.794 L 258.400 270.263 256.593 268.531 C 254.615 266.636,254.666 266.645,249.000 267.183 M175.373 268.450 C 180.717 269.113,181.200 269.656,181.200 275.000 C 181.200 282.291,182.831 282.000,141.918 282.000 L 112.090 282.000 110.145 280.700 L 108.200 279.400 108.200 275.000 L 108.200 270.600 110.145 269.300 L 112.090 268.000 141.918 268.000 C 161.590 268.000,172.981 268.153,175.373 268.450 M291.175 269.787 L 293.200 270.813 293.200 275.022 L 293.200 279.231 290.333 280.605 L 287.466 281.979 285.633 280.663 L 283.800 279.347 283.687 275.087 L 283.573 270.827 285.466 269.454 C 287.549 267.942,287.531 267.941,291.175 269.787 M255.458 269.700 L 256.674 271.000 256.493 275.267 C 256.237 281.303,255.843 281.655,250.103 280.998 C 244.510 280.358,244.400 280.242,244.400 275.000 C 244.400 269.774,244.562 269.598,249.931 268.962 C 252.059 268.711,253.900 268.481,254.022 268.452 C 254.143 268.424,254.790 268.985,255.458 269.700 M76.800 318.797 C 79.770 319.210,83.501 320.226,84.121 320.791 C 85.535 322.076,78.891 323.083,73.729 322.365 C 69.910 321.835,69.452 321.516,69.805 319.633 C 70.301 316.991,70.560 316.782,72.290 317.635 C 73.120 318.044,75.150 318.567,76.800 318.797 M330.000 319.000 C 330.580 321.573,330.389 321.726,325.800 322.383 C 321.002 323.070,314.517 322.029,315.879 320.791 C 316.498 320.228,320.227 319.211,323.194 318.795 C 324.840 318.565,326.820 318.057,327.594 317.668 C 329.248 316.834,329.549 317.001,330.000 319.000 " stroke="none" fill="#78dac2" fill-rule="evenodd"></path><path id="path2" d="M73.314 77.561 C 70.176 77.863,69.416 78.529,69.777 80.665 C 70.208 83.216,70.458 83.391,72.313 82.445 C 73.204 81.990,75.254 81.423,76.867 81.184 C 87.787 79.571,84.740 76.463,73.314 77.561 M317.415 78.129 C 316.323 78.634,315.603 79.148,315.815 79.270 C 316.850 79.870,320.513 80.829,323.200 81.205 C 324.850 81.436,326.881 81.979,327.712 82.412 C 328.544 82.846,329.291 83.200,329.372 83.200 C 329.454 83.200,329.740 82.283,330.009 81.163 C 330.662 78.442,330.259 78.087,325.977 77.594 C 321.010 77.023,319.616 77.110,317.415 78.129 M61.369 91.800 C 59.745 95.389,59.534 100.238,59.712 129.800 C 59.862 154.537,59.910 155.968,60.708 159.257 C 61.471 162.405,61.497 162.906,60.993 164.857 C 59.782 169.542,59.600 174.134,59.600 200.000 C 59.600 225.866,59.782 230.458,60.993 235.142 C 61.499 237.101,61.471 237.598,60.673 240.942 C 59.816 244.533,59.800 245.147,59.800 274.600 L 59.800 304.600 61.181 307.546 L 62.561 310.493 63.472 309.350 C 63.973 308.722,64.575 307.284,64.810 306.154 C 65.394 303.338,65.122 241.206,64.516 239.101 C 64.202 238.010,64.209 237.138,64.542 235.901 C 65.190 233.493,65.190 166.507,64.542 164.099 C 64.209 162.862,64.202 161.990,64.516 160.899 C 65.142 158.724,65.392 96.654,64.787 93.736 C 64.540 92.546,63.914 91.083,63.396 90.486 L 62.455 89.400 61.369 91.800 M336.492 90.974 C 336.027 91.565,335.448 93.006,335.205 94.176 C 334.577 97.201,334.867 158.366,335.520 160.600 C 335.882 161.836,335.876 162.701,335.494 164.400 C 334.784 167.561,334.784 232.439,335.494 235.600 C 335.876 237.299,335.882 238.164,335.520 239.400 C 334.860 241.658,334.578 302.802,335.213 305.863 C 335.460 307.054,336.086 308.517,336.603 309.114 L 337.544 310.200 338.647 307.801 C 340.274 304.260,340.477 299.616,340.283 270.200 C 340.131 247.035,340.045 244.315,339.378 241.600 C 338.466 237.888,338.472 237.010,339.433 233.000 C 340.154 229.994,340.200 227.994,340.200 200.000 C 340.200 172.006,340.154 170.006,339.433 167.000 C 338.468 162.976,338.468 162.180,339.423 158.000 C 340.155 154.798,340.200 152.886,340.196 125.200 L 340.192 95.800 339.296 93.576 C 337.852 89.995,337.511 89.678,336.492 90.974 M91.200 97.886 C 87.481 98.538,86.836 98.930,85.139 101.578 L 84.000 103.357 84.000 125.000 L 84.000 146.643 85.175 148.496 C 88.138 153.169,78.306 152.800,200.000 152.800 C 321.694 152.800,311.862 153.169,314.825 148.496 L 316.000 146.643 316.000 125.000 L 316.000 103.357 314.825 101.504 C 313.271 99.053,312.472 98.616,308.143 97.848 C 302.814 96.904,96.604 96.940,91.200 97.886 M307.763 101.629 C 314.241 102.839,313.600 100.273,313.600 125.000 C 313.600 149.727,314.241 147.161,307.763 148.371 C 300.772 149.677,99.228 149.677,92.237 148.371 C 85.759 147.161,86.400 149.727,86.400 125.000 C 86.400 100.391,85.834 102.836,91.800 101.662 C 98.259 100.391,300.968 100.359,307.763 101.629 M109.723 114.366 C 102.692 116.377,100.400 118.982,100.400 124.960 C 100.400 130.752,102.455 133.274,109.000 135.511 C 111.557 136.386,167.792 136.788,175.400 135.987 C 183.671 135.116,185.600 133.038,185.600 125.000 C 185.600 117.239,183.652 114.976,176.173 114.049 C 169.516 113.225,112.768 113.495,109.723 114.366 M285.000 114.560 C 282.365 115.393,281.107 116.217,278.900 118.558 L 276.800 120.785 276.800 125.003 L 276.800 129.221 279.048 131.582 C 283.500 136.258,288.553 136.993,295.550 133.983 C 301.162 131.569,302.937 122.032,298.536 117.946 C 295.466 115.096,288.675 113.397,285.000 114.560 M245.967 114.772 C 241.485 115.648,240.000 118.126,240.000 124.728 C 240.000 133.280,241.758 135.123,250.284 135.508 C 258.734 135.889,261.178 133.490,261.187 124.800 C 261.197 115.764,256.552 112.703,245.967 114.772 M175.039 116.566 C 181.931 117.489,182.800 118.435,182.800 125.017 C 182.800 134.202,183.141 134.130,140.800 133.933 L 112.200 133.800 110.000 132.672 C 105.686 130.461,105.200 129.681,105.200 124.968 L 105.200 120.893 106.776 119.469 C 108.716 117.716,110.353 116.848,112.531 116.418 C 115.544 115.822,170.454 115.952,175.039 116.566 M292.800 118.517 L 296.200 120.200 296.200 124.800 L 296.200 129.400 294.320 130.657 C 289.445 133.915,286.575 134.002,283.244 130.992 L 281.600 129.507 281.600 125.032 L 281.600 120.557 282.900 119.318 C 286.409 115.974,287.487 115.887,292.800 118.517 M256.593 118.531 L 258.400 120.263 258.400 124.794 C 258.400 131.970,256.715 133.569,249.929 132.831 C 243.393 132.120,242.800 131.468,242.800 125.000 C 242.800 118.037,243.840 117.230,253.293 116.859 C 254.548 116.809,255.074 117.076,256.593 118.531 M91.625 172.851 C 86.897 173.729,86.754 173.812,85.166 176.580 L 84.008 178.600 84.008 200.000 L 84.008 221.400 85.166 223.420 C 88.022 228.399,78.027 228.000,200.000 228.000 C 321.973 228.000,311.978 228.399,314.834 223.420 L 315.992 221.400 315.992 200.000 L 315.992 178.600 314.834 176.580 C 311.975 171.597,322.033 171.993,199.630 172.038 C 98.682 172.074,95.684 172.097,91.625 172.851 M308.614 176.803 C 314.079 177.927,313.575 175.568,313.575 200.000 C 313.575 224.432,314.079 222.073,308.614 223.197 C 302.480 224.459,97.520 224.459,91.386 223.197 C 85.921 222.073,86.425 224.432,86.425 200.000 C 86.425 175.675,85.979 177.915,91.047 176.836 C 96.791 175.614,302.680 175.582,308.614 176.803 M114.200 188.662 C 109.254 189.058,104.884 190.847,101.980 193.666 L 100.400 195.199 100.400 199.786 C 100.400 205.008,100.794 205.796,104.703 208.385 C 109.287 211.421,108.366 211.342,141.000 211.507 C 185.190 211.730,185.600 211.624,185.600 200.000 C 185.600 191.898,183.812 189.963,175.403 188.960 C 171.414 188.484,119.579 188.232,114.200 188.662 M285.598 189.374 C 282.906 190.111,282.041 190.655,279.300 193.334 L 276.800 195.777 276.800 200.000 L 276.800 204.223 279.371 206.771 C 284.088 211.447,289.218 212.037,296.000 208.685 C 299.702 206.855,300.225 205.905,300.585 200.364 L 300.875 195.890 299.722 194.245 C 297.882 191.617,295.609 190.601,288.000 189.006 C 287.670 188.936,286.589 189.102,285.598 189.374 M248.200 189.584 C 241.729 190.109,240.255 191.893,240.070 199.424 C 239.848 208.447,241.576 210.255,250.642 210.481 C 258.858 210.686,260.914 208.749,261.132 200.597 C 261.285 194.890,260.685 192.849,258.348 191.112 C 255.790 189.211,254.737 189.053,248.200 189.584 M175.471 191.621 C 179.654 192.183,179.808 192.242,181.410 193.891 L 182.800 195.323 182.800 200.000 L 182.800 204.677 181.410 206.109 C 178.884 208.710,177.574 208.800,142.382 208.800 L 112.422 208.800 110.292 207.791 C 109.120 207.237,107.495 206.234,106.681 205.562 L 105.200 204.342 105.200 200.000 L 105.200 195.658 106.700 194.416 C 107.525 193.733,109.100 192.737,110.200 192.202 L 112.200 191.229 142.271 191.215 C 161.135 191.205,173.508 191.357,175.471 191.621 M256.357 193.437 L 258.400 195.274 258.400 199.911 L 258.400 204.547 256.487 206.391 L 254.574 208.235 250.104 207.818 C 245.790 207.414,245.586 207.352,244.218 206.022 L 242.800 204.643 242.800 199.978 L 242.800 195.312 244.181 193.956 C 245.482 192.679,245.804 192.574,249.681 192.154 C 251.947 191.908,253.916 191.683,254.057 191.654 C 254.198 191.624,255.233 192.427,256.357 193.437 M290.505 192.399 C 291.679 192.838,293.485 193.734,294.520 194.390 L 296.400 195.582 296.400 200.000 L 296.400 204.418 294.520 205.610 C 289.605 208.727,287.041 208.936,283.800 206.483 L 281.800 204.968 281.687 200.230 C 281.560 194.901,281.562 194.896,284.738 192.792 C 286.859 191.387,287.655 191.332,290.505 192.399 M91.200 247.886 C 87.481 248.538,86.836 248.930,85.139 251.578 L 84.000 253.357 84.000 275.000 L 84.000 296.643 85.175 298.496 C 88.138 303.169,78.306 302.800,200.000 302.800 C 321.694 302.800,311.862 303.169,314.825 298.496 L 316.000 296.643 316.000 275.000 L 316.000 253.357 314.825 251.504 C 313.271 249.053,312.472 248.616,308.143 247.848 C 302.814 246.904,96.604 246.940,91.200 247.886 M307.763 251.629 C 314.241 252.839,313.600 250.273,313.600 275.000 C 313.600 299.727,314.241 297.161,307.763 298.371 C 300.772 299.677,99.228 299.677,92.237 298.371 C 85.759 297.161,86.400 299.727,86.400 275.000 C 86.400 250.391,85.834 252.836,91.800 251.662 C 98.259 250.391,300.968 250.359,307.763 251.629 M109.723 264.366 C 102.692 266.377,100.400 268.982,100.400 274.960 C 100.400 280.752,102.455 283.274,109.000 285.511 C 111.557 286.386,167.792 286.788,175.400 285.987 C 183.671 285.116,185.600 283.038,185.600 275.000 C 185.600 267.239,183.652 264.976,176.173 264.049 C 169.516 263.225,112.768 263.495,109.723 264.366 M285.000 264.560 C 282.365 265.393,281.107 266.217,278.900 268.558 L 276.800 270.785 276.800 275.003 L 276.800 279.221 279.048 281.582 C 283.500 286.258,288.553 286.993,295.550 283.983 C 301.162 281.569,302.937 272.032,298.536 267.946 C 295.466 265.096,288.675 263.397,285.000 264.560 M245.967 264.772 C 241.485 265.648,240.000 268.126,240.000 274.728 C 240.000 283.280,241.758 285.123,250.284 285.508 C 258.734 285.889,261.178 283.490,261.187 274.800 C 261.197 265.764,256.552 262.703,245.967 264.772 M175.039 266.566 C 181.931 267.489,182.800 268.435,182.800 275.017 C 182.800 284.202,183.141 284.130,140.800 283.933 L 112.200 283.800 110.000 282.672 C 105.686 280.461,105.200 279.681,105.200 274.968 L 105.200 270.893 106.776 269.469 C 108.716 267.716,110.353 266.848,112.531 266.418 C 115.544 265.822,170.454 265.952,175.039 266.566 M292.800 268.517 L 296.200 270.200 296.200 274.800 L 296.200 279.400 294.320 280.657 C 289.445 283.915,286.575 284.002,283.244 280.992 L 281.600 279.507 281.600 275.032 L 281.600 270.557 282.900 269.318 C 286.409 265.974,287.487 265.887,292.800 268.517 M256.593 268.531 L 258.400 270.263 258.400 274.794 C 258.400 281.970,256.715 283.569,249.929 282.831 C 243.393 282.120,242.800 281.468,242.800 275.000 C 242.800 268.037,243.840 267.230,253.293 266.859 C 254.548 266.809,255.074 267.076,256.593 268.531 M70.425 317.553 C 68.746 320.691,69.491 321.776,73.729 322.365 C 78.891 323.083,85.535 322.076,84.121 320.791 C 83.501 320.226,79.770 319.210,76.800 318.797 C 75.150 318.567,73.120 318.044,72.290 317.635 C 70.897 316.948,70.752 316.942,70.425 317.553 M327.594 317.668 C 326.820 318.057,324.840 318.565,323.194 318.795 C 320.227 319.211,316.498 320.228,315.879 320.791 C 314.517 322.029,321.002 323.070,325.800 322.383 C 330.389 321.726,330.580 321.573,330.000 319.000 C 329.549 317.001,329.248 316.834,327.594 317.668 " stroke="none" fill="#a8e4d8" fill-rule="evenodd"></path><path id="path3" d="M90.000 66.779 C 86.347 67.061,84.106 67.943,81.693 70.048 C 80.974 70.675,79.984 71.282,79.493 71.397 C 79.002 71.512,76.452 72.054,73.827 72.601 C 67.813 73.856,66.837 74.488,64.891 78.393 C 63.678 80.827,63.019 81.644,61.358 82.766 C 58.743 84.533,57.805 85.934,56.917 89.400 C 55.787 93.813,55.805 305.714,56.936 310.539 C 57.751 314.015,59.353 316.266,61.861 317.456 C 62.918 317.957,63.523 318.735,64.599 320.970 C 66.810 325.567,67.613 326.077,75.111 327.637 C 79.712 328.595,80.630 328.919,81.898 330.032 C 82.704 330.740,84.362 331.787,85.582 332.360 L 87.800 333.400 200.000 333.400 L 312.200 333.400 314.418 332.360 C 315.638 331.787,317.296 330.740,318.102 330.032 C 319.369 328.920,320.290 328.594,324.884 327.637 C 332.466 326.056,332.866 325.801,335.200 321.050 C 336.353 318.702,336.973 317.953,338.713 316.800 C 341.385 315.030,342.214 313.744,343.094 310.000 C 344.188 305.349,344.188 94.651,343.094 90.000 C 342.214 86.256,341.385 84.970,338.713 83.200 C 336.968 82.044,336.356 81.302,335.200 78.940 C 332.884 74.209,332.470 73.945,324.884 72.363 C 320.290 71.406,319.369 71.080,318.102 69.968 C 317.296 69.260,315.638 68.213,314.418 67.640 L 312.200 66.600 202.800 66.558 C 142.630 66.535,91.870 66.635,90.000 66.779 M308.567 70.406 C 311.748 70.716,312.686 70.956,313.305 71.621 C 314.446 72.845,315.501 73.139,322.766 74.255 C 330.994 75.519,332.294 76.307,333.564 80.800 C 334.062 82.565,336.122 85.200,337.004 85.200 C 338.433 85.200,340.514 88.754,341.622 93.087 C 342.675 97.204,342.821 151.774,341.797 158.566 C 341.300 161.864,341.284 162.977,341.700 165.166 C 342.417 168.944,342.417 231.056,341.700 234.834 C 341.284 237.023,341.300 238.136,341.797 241.434 C 342.821 248.226,342.675 302.796,341.622 306.913 C 340.514 311.246,338.433 314.800,337.004 314.800 C 336.122 314.800,334.062 317.435,333.564 319.200 C 332.294 323.693,330.994 324.481,322.766 325.745 C 315.501 326.861,314.446 327.155,313.305 328.379 C 311.863 329.927,308.151 329.979,200.000 329.979 C 91.849 329.979,88.137 329.927,86.695 328.379 C 85.607 327.212,74.916 324.800,70.830 324.800 C 69.699 324.800,67.149 321.749,66.546 319.675 C 65.883 317.393,65.367 316.761,61.626 313.657 C 60.302 312.559,59.807 311.721,58.904 309.057 L 57.800 305.800 57.800 274.000 C 57.800 251.103,57.932 241.579,58.272 239.980 C 58.647 238.211,58.629 236.952,58.179 233.780 C 57.360 227.997,57.359 172.017,58.178 166.200 C 58.604 163.170,58.636 161.763,58.308 160.400 C 57.359 156.459,57.436 96.428,58.394 92.732 C 59.598 88.086,60.479 86.595,62.959 85.009 C 65.071 83.658,65.786 82.631,66.775 79.526 C 67.161 78.316,69.907 75.200,70.587 75.200 C 74.699 75.200,85.633 72.760,86.712 71.602 C 87.332 70.937,88.221 70.686,90.851 70.432 C 95.750 69.959,303.719 69.935,308.567 70.406 M85.800 81.877 C 84.920 82.199,82.893 82.715,81.296 83.025 C 76.617 83.932,69.469 89.293,67.964 93.022 C 67.247 94.799,67.446 156.398,68.180 160.000 C 68.624 162.175,68.621 163.025,68.164 165.200 C 67.727 167.275,67.617 174.302,67.617 200.000 C 67.617 225.698,67.727 232.725,68.164 234.800 C 68.621 236.975,68.624 237.825,68.180 240.000 C 67.458 243.543,67.246 305.200,67.950 306.942 C 69.477 310.719,76.523 315.968,81.400 316.962 C 83.160 317.321,85.484 317.882,86.564 318.207 C 89.955 319.231,310.389 319.088,314.001 318.061 C 315.431 317.654,317.792 317.098,319.249 316.825 C 322.478 316.220,325.140 314.731,326.800 312.600 C 327.486 311.720,328.695 310.550,329.487 310.000 C 332.758 307.730,332.581 309.864,332.458 274.215 C 332.371 248.835,332.239 242.114,331.788 240.134 C 331.304 238.005,331.306 237.296,331.807 234.934 C 332.285 232.677,332.386 226.587,332.386 200.000 C 332.386 173.413,332.285 167.323,331.807 165.066 C 331.306 162.704,331.304 161.995,331.788 159.866 C 332.541 156.556,332.784 94.863,332.052 93.058 C 330.516 89.276,323.476 84.032,318.600 83.038 C 316.840 82.679,314.516 82.118,313.436 81.793 C 310.491 80.904,88.241 80.986,85.800 81.877 M317.476 84.876 C 321.267 85.480,324.400 86.973,324.400 88.175 C 324.400 89.008,326.317 91.138,328.055 92.235 C 331.177 94.206,331.000 92.221,330.999 125.200 C 330.998 158.201,331.047 157.596,328.138 160.816 C 326.640 162.474,326.831 163.976,328.625 164.665 C 332.278 166.067,332.278 233.933,328.625 235.335 C 326.831 236.024,326.640 237.526,328.138 239.184 C 331.047 242.404,330.998 241.799,330.999 274.800 C 331.000 307.779,331.177 305.794,328.055 307.765 C 326.305 308.870,324.400 310.993,324.400 311.839 C 324.400 313.290,321.081 314.617,315.949 315.219 C 308.532 316.089,91.468 316.089,84.051 315.219 C 79.057 314.634,75.600 313.295,75.600 311.947 C 75.600 311.116,73.585 308.800,71.980 307.787 C 68.817 305.791,69.000 307.814,69.001 274.800 C 69.002 241.815,68.964 242.286,71.861 239.079 L 73.246 237.547 71.839 235.990 C 68.954 232.797,69.002 233.409,69.002 200.000 C 69.002 166.591,68.954 167.203,71.839 164.010 L 73.246 162.453 71.861 160.921 C 68.964 157.714,69.002 158.185,69.001 125.200 C 69.000 92.145,68.865 93.661,71.936 92.094 C 72.815 91.645,74.014 90.434,74.937 89.062 C 76.961 86.055,78.294 85.436,84.000 84.853 C 86.530 84.594,89.140 84.322,89.800 84.247 C 94.335 83.733,314.114 84.340,317.476 84.876 M91.800 91.256 C 86.591 91.917,84.337 93.567,82.044 98.400 L 81.000 100.600 80.885 123.890 C 80.756 149.954,80.754 149.928,83.469 153.879 C 85.781 157.243,86.773 157.826,91.448 158.562 C 97.619 159.535,302.381 159.535,308.552 158.562 C 314.112 157.686,317.187 154.929,318.624 149.529 C 319.456 146.404,319.456 103.596,318.624 100.471 C 317.187 95.071,314.112 92.314,308.552 91.438 C 303.961 90.714,97.436 90.542,91.800 91.256 M308.811 94.937 C 317.933 97.447,318.000 97.666,318.000 125.000 C 318.000 152.334,317.933 152.553,308.811 155.063 L 305.406 156.000 200.000 156.000 L 94.594 156.000 91.189 155.063 C 85.954 153.623,83.953 151.954,82.660 147.952 C 81.649 144.822,81.666 105.125,82.680 101.987 C 83.868 98.309,86.278 96.191,90.600 95.028 L 94.200 94.059 199.803 94.029 L 305.406 94.000 308.811 94.937 M110.145 119.300 L 108.200 120.600 108.200 125.000 L 108.200 129.400 110.145 130.700 L 112.090 132.000 141.918 132.000 C 182.831 132.000,181.200 132.291,181.200 125.000 C 181.200 117.709,182.831 118.000,141.918 118.000 L 112.090 118.000 110.145 119.300 M285.466 119.454 L 283.573 120.827 283.687 125.087 L 283.800 129.347 285.633 130.663 L 287.466 131.979 290.333 130.605 L 293.200 129.231 293.200 125.022 L 293.200 120.813 291.175 119.787 C 287.531 117.941,287.549 117.942,285.466 119.454 M249.931 118.962 C 244.562 119.598,244.400 119.774,244.400 125.000 C 244.400 130.242,244.510 130.358,250.103 130.998 C 255.843 131.655,256.237 131.303,256.493 125.267 L 256.674 121.000 255.458 119.700 C 254.790 118.985,254.143 118.424,254.022 118.452 C 253.900 118.481,252.059 118.711,249.931 118.962 M173.871 119.605 C 175.592 119.828,177.585 120.106,178.300 120.223 L 179.600 120.436 179.600 125.000 L 179.600 129.564 178.300 129.777 C 172.889 130.664,168.032 130.800,141.718 130.800 C 113.013 130.800,112.680 130.791,111.347 129.967 L 110.000 129.135 110.000 125.007 L 110.000 120.879 111.300 120.046 C 112.777 119.100,167.015 118.718,173.871 119.605 M289.220 120.210 L 290.400 120.821 290.400 125.017 L 290.400 129.213 289.006 129.877 C 286.238 131.198,285.600 130.298,285.600 125.077 C 285.600 119.639,286.299 118.700,289.220 120.210 M254.720 120.480 C 255.482 121.242,255.369 128.962,254.586 129.611 C 254.053 130.054,247.877 129.610,247.358 129.092 C 247.298 129.032,247.123 127.156,246.970 124.924 L 246.690 120.865 248.645 120.601 C 249.720 120.456,250.780 120.275,251.000 120.200 C 251.969 119.868,254.282 120.042,254.720 120.480 M90.000 166.492 C 85.900 167.106,82.717 170.405,81.421 175.384 C 80.504 178.905,80.496 221.064,81.411 224.577 C 82.695 229.506,85.856 232.601,90.428 233.406 C 95.517 234.301,304.483 234.301,309.572 233.406 C 314.144 232.601,317.305 229.506,318.589 224.577 C 319.497 221.093,319.497 178.907,318.589 175.423 C 317.305 170.494,314.144 167.399,309.572 166.594 C 305.508 165.879,94.745 165.780,90.000 166.492 M308.577 169.880 C 317.930 172.189,318.000 172.414,318.000 200.000 C 318.000 227.586,317.930 227.811,308.577 230.120 L 304.200 231.201 200.000 231.201 L 95.800 231.201 91.423 230.120 C 82.070 227.811,82.000 227.586,82.000 200.000 C 82.000 172.525,82.095 172.215,91.223 169.904 L 95.400 168.846 199.800 168.823 L 304.200 168.799 308.577 169.880 M112.400 193.079 C 112.070 193.197,110.945 193.832,109.900 194.489 L 108.000 195.683 108.000 200.000 L 108.000 204.317 110.090 205.658 L 112.181 207.000 141.006 207.115 C 182.243 207.279,181.200 207.464,181.200 200.000 C 181.200 194.331,181.027 194.153,174.740 193.372 C 170.216 192.809,113.887 192.545,112.400 193.079 M285.600 194.290 C 283.604 195.832,283.613 195.807,283.606 200.084 C 283.597 206.043,285.774 207.828,290.288 205.561 L 293.000 204.200 293.000 200.000 L 293.000 195.800 290.600 194.511 C 287.675 192.940,287.365 192.927,285.600 194.290 M248.803 194.078 C 244.571 194.607,244.400 194.830,244.400 199.818 C 244.400 205.277,244.502 205.390,249.905 205.991 C 255.771 206.642,256.398 206.188,256.405 201.273 C 256.408 199.363,256.518 197.401,256.649 196.913 C 256.823 196.263,256.562 195.701,255.674 194.813 C 254.337 193.476,253.952 193.434,248.803 194.078 M176.200 194.926 L 179.400 195.400 179.400 199.997 L 179.400 204.593 176.200 205.067 C 170.458 205.916,112.628 205.780,111.162 204.914 L 110.000 204.228 110.000 200.006 C 110.000 193.792,106.333 194.418,142.600 194.437 C 163.889 194.447,173.959 194.594,176.200 194.926 M288.986 195.074 L 290.400 195.748 290.400 200.000 L 290.400 204.252 288.986 204.926 C 287.681 205.548,287.496 205.551,286.586 204.954 C 284.532 203.608,285.272 194.959,287.486 194.421 C 287.534 194.409,288.209 194.703,288.986 195.074 M254.720 195.280 C 255.397 195.957,255.379 204.159,254.700 204.700 C 254.367 204.965,253.064 204.948,250.800 204.649 L 247.400 204.200 247.086 201.400 C 246.914 199.860,246.824 197.970,246.886 197.200 L 247.000 195.800 250.200 195.350 C 251.960 195.103,253.589 194.878,253.820 194.850 C 254.051 194.823,254.456 195.016,254.720 195.280 M91.800 241.256 C 86.591 241.917,84.337 243.567,82.044 248.400 L 81.000 250.600 80.885 273.890 C 80.756 299.954,80.754 299.928,83.469 303.879 C 85.781 307.243,86.773 307.826,91.448 308.562 C 97.619 309.535,302.381 309.535,308.552 308.562 C 314.112 307.686,317.187 304.929,318.624 299.529 C 319.456 296.404,319.456 253.596,318.624 250.471 C 317.187 245.071,314.112 242.314,308.552 241.438 C 303.961 240.714,97.436 240.542,91.800 241.256 M308.811 244.937 C 317.933 247.447,318.000 247.666,318.000 275.000 C 318.000 302.334,317.933 302.553,308.811 305.063 L 305.406 306.000 200.000 306.000 L 94.594 306.000 91.189 305.063 C 85.954 303.623,83.953 301.954,82.660 297.952 C 81.649 294.822,81.666 255.125,82.680 251.987 C 83.868 248.309,86.278 246.191,90.600 245.028 L 94.200 244.059 199.803 244.029 L 305.406 244.000 308.811 244.937 M110.145 269.300 L 108.200 270.600 108.200 275.000 L 108.200 279.400 110.145 280.700 L 112.090 282.000 141.918 282.000 C 182.831 282.000,181.200 282.291,181.200 275.000 C 181.200 267.709,182.831 268.000,141.918 268.000 L 112.090 268.000 110.145 269.300 M285.466 269.454 L 283.573 270.827 283.687 275.087 L 283.800 279.347 285.633 280.663 L 287.466 281.979 290.333 280.605 L 293.200 279.231 293.200 275.022 L 293.200 270.813 291.175 269.787 C 287.531 267.941,287.549 267.942,285.466 269.454 M249.931 268.962 C 244.562 269.598,244.400 269.774,244.400 275.000 C 244.400 280.242,244.510 280.358,250.103 280.998 C 255.843 281.655,256.237 281.303,256.493 275.267 L 256.674 271.000 255.458 269.700 C 254.790 268.985,254.143 268.424,254.022 268.452 C 253.900 268.481,252.059 268.711,249.931 268.962 M173.871 269.605 C 175.592 269.828,177.585 270.106,178.300 270.223 L 179.600 270.436 179.600 275.000 L 179.600 279.564 178.300 279.777 C 172.889 280.664,168.032 280.800,141.718 280.800 C 113.013 280.800,112.680 280.791,111.347 279.967 L 110.000 279.135 110.000 275.007 L 110.000 270.879 111.300 270.046 C 112.777 269.100,167.015 268.718,173.871 269.605 M289.220 270.210 L 290.400 270.821 290.400 275.017 L 290.400 279.213 289.006 279.877 C 286.238 281.198,285.600 280.298,285.600 275.077 C 285.600 269.639,286.299 268.700,289.220 270.210 M254.720 270.480 C 255.482 271.242,255.369 278.962,254.586 279.611 C 254.053 280.054,247.877 279.610,247.358 279.092 C 247.298 279.032,247.123 277.156,246.970 274.924 L 246.690 270.865 248.645 270.601 C 249.720 270.456,250.780 270.275,251.000 270.200 C 251.969 269.868,254.282 270.042,254.720 270.480 " stroke="none" fill="#54ccb4" fill-rule="evenodd"></path><path id="path4" d="M0.000 200.000 L 0.000 400.000 200.000 400.000 L 400.000 400.000 400.000 200.000 L 400.000 0.000 200.000 0.000 L 0.000 0.000 0.000 200.000 M314.418 67.640 C 315.638 68.213,317.296 69.260,318.102 69.968 C 319.369 71.080,320.290 71.406,324.884 72.363 C 332.470 73.945,332.884 74.209,335.200 78.940 C 336.356 81.302,336.968 82.044,338.713 83.200 C 341.385 84.970,342.214 86.256,343.094 90.000 C 344.188 94.651,344.188 305.349,343.094 310.000 C 342.214 313.744,341.385 315.030,338.713 316.800 C 336.973 317.953,336.353 318.702,335.200 321.050 C 332.866 325.801,332.466 326.056,324.884 327.637 C 320.290 328.594,319.369 328.920,318.102 330.032 C 317.296 330.740,315.638 331.787,314.418 332.360 L 312.200 333.400 200.000 333.400 L 87.800 333.400 85.582 332.360 C 84.362 331.787,82.704 330.740,81.898 330.032 C 80.630 328.919,79.712 328.595,75.111 327.637 C 67.613 326.077,66.810 325.567,64.599 320.970 C 63.523 318.735,62.918 317.957,61.861 317.456 C 59.353 316.266,57.751 314.015,56.936 310.539 C 55.805 305.714,55.787 93.813,56.917 89.400 C 57.805 85.934,58.743 84.533,61.358 82.766 C 63.019 81.644,63.678 80.827,64.891 78.393 C 66.837 74.488,67.813 73.856,73.827 72.601 C 76.452 72.054,79.002 71.512,79.493 71.397 C 79.984 71.282,80.974 70.675,81.693 70.048 C 86.090 66.213,75.782 66.510,202.800 66.558 L 312.200 66.600 314.418 67.640 M89.800 84.247 C 89.140 84.322,86.530 84.594,84.000 84.853 C 78.294 85.436,76.961 86.055,74.937 89.062 C 74.014 90.434,72.815 91.645,71.936 92.094 C 68.865 93.661,69.000 92.145,69.001 125.200 C 69.002 158.185,68.964 157.714,71.861 160.921 L 73.246 162.453 71.839 164.010 C 68.954 167.203,69.002 166.591,69.002 200.000 C 69.002 233.409,68.954 232.797,71.839 235.990 L 73.246 237.547 71.861 239.079 C 68.964 242.286,69.002 241.815,69.001 274.800 C 69.000 307.814,68.817 305.791,71.980 307.787 C 73.585 308.800,75.600 311.116,75.600 311.947 C 75.600 313.295,79.057 314.634,84.051 315.219 C 91.468 316.089,308.532 316.089,315.949 315.219 C 321.081 314.617,324.400 313.290,324.400 311.839 C 324.400 310.993,326.305 308.870,328.055 307.765 C 331.177 305.794,331.000 307.779,330.999 274.800 C 330.998 241.799,331.047 242.404,328.138 239.184 C 326.640 237.526,326.831 236.024,328.625 235.335 C 332.278 233.933,332.278 166.067,328.625 164.665 C 326.831 163.976,326.640 162.474,328.138 160.816 C 331.047 157.596,330.998 158.201,330.999 125.200 C 331.000 92.221,331.177 94.206,328.055 92.235 C 326.317 91.138,324.400 89.008,324.400 88.175 C 324.400 86.973,321.267 85.480,317.476 84.876 C 314.114 84.340,94.335 83.733,89.800 84.247 M308.552 91.438 C 314.112 92.314,317.187 95.071,318.624 100.471 C 319.456 103.596,319.456 146.404,318.624 149.529 C 317.187 154.929,314.112 157.686,308.552 158.562 C 302.381 159.535,97.619 159.535,91.448 158.562 C 86.773 157.826,85.781 157.243,83.469 153.879 C 80.754 149.928,80.756 149.954,80.885 123.890 L 81.000 100.600 82.044 98.400 C 84.337 93.567,86.591 91.917,91.800 91.256 C 97.436 90.542,303.961 90.714,308.552 91.438 M111.300 120.046 L 110.000 120.879 110.000 125.007 L 110.000 129.135 111.347 129.967 C 112.680 130.791,113.013 130.800,141.718 130.800 C 168.032 130.800,172.889 130.664,178.300 129.777 L 179.600 129.564 179.600 125.000 L 179.600 120.436 178.300 120.223 C 172.882 119.335,168.050 119.201,141.671 119.207 C 112.910 119.213,112.586 119.222,111.300 120.046 M286.300 120.157 C 285.025 121.125,285.279 129.293,286.606 130.003 C 287.471 130.466,287.810 130.448,289.006 129.877 L 290.400 129.213 290.400 125.017 L 290.400 120.821 289.220 120.210 C 287.792 119.472,287.216 119.461,286.300 120.157 M251.000 120.200 C 250.780 120.275,249.720 120.456,248.645 120.601 L 246.690 120.865 246.970 124.924 C 247.302 129.750,246.792 129.105,250.720 129.661 C 255.143 130.286,255.200 130.228,255.200 125.031 C 255.200 120.185,254.247 119.089,251.000 120.200 M309.572 166.594 C 314.144 167.399,317.305 170.494,318.589 175.423 C 319.497 178.907,319.497 221.093,318.589 224.577 C 317.305 229.506,314.144 232.601,309.572 233.406 C 304.483 234.301,95.517 234.301,90.428 233.406 C 85.856 232.601,82.695 229.506,81.411 224.577 C 80.496 221.064,80.504 178.905,81.421 175.384 C 82.717 170.405,85.900 167.106,90.000 166.492 C 94.745 165.780,305.508 165.879,309.572 166.594 M111.100 195.103 C 110.013 195.777,110.000 195.834,110.000 200.006 L 110.000 204.228 111.162 204.914 C 112.628 205.780,170.458 205.916,176.200 205.067 L 179.400 204.593 179.400 199.997 L 179.400 195.400 176.200 194.926 C 170.494 194.081,112.494 194.239,111.100 195.103 M286.500 195.070 C 285.057 196.076,285.126 203.998,286.586 204.954 C 287.496 205.551,287.681 205.548,288.986 204.926 L 290.400 204.252 290.400 200.000 L 290.400 195.748 288.986 195.074 C 288.209 194.703,287.534 194.409,287.486 194.421 C 287.439 194.433,286.995 194.724,286.500 195.070 M250.200 195.350 L 247.000 195.800 246.886 197.200 C 246.824 197.970,246.914 199.860,247.086 201.400 L 247.400 204.200 250.800 204.649 C 255.250 205.237,255.200 205.290,255.200 200.031 C 255.200 195.878,254.892 194.722,253.820 194.850 C 253.589 194.878,251.960 195.103,250.200 195.350 M308.552 241.438 C 314.112 242.314,317.187 245.071,318.624 250.471 C 319.456 253.596,319.456 296.404,318.624 299.529 C 317.187 304.929,314.112 307.686,308.552 308.562 C 302.381 309.535,97.619 309.535,91.448 308.562 C 86.773 307.826,85.781 307.243,83.469 303.879 C 80.754 299.928,80.756 299.954,80.885 273.890 L 81.000 250.600 82.044 248.400 C 84.337 243.567,86.591 241.917,91.800 241.256 C 97.436 240.542,303.961 240.714,308.552 241.438 M111.300 270.046 L 110.000 270.879 110.000 275.007 L 110.000 279.135 111.347 279.967 C 112.680 280.791,113.013 280.800,141.718 280.800 C 168.032 280.800,172.889 280.664,178.300 279.777 L 179.600 279.564 179.600 275.000 L 179.600 270.436 178.300 270.223 C 172.882 269.335,168.050 269.201,141.671 269.207 C 112.910 269.213,112.586 269.222,111.300 270.046 M286.300 270.157 C 285.025 271.125,285.279 279.293,286.606 280.003 C 287.471 280.466,287.810 280.448,289.006 279.877 L 290.400 279.213 290.400 275.017 L 290.400 270.821 289.220 270.210 C 287.792 269.472,287.216 269.461,286.300 270.157 M251.000 270.200 C 250.780 270.275,249.720 270.456,248.645 270.601 L 246.690 270.865 246.970 274.924 C 247.302 279.750,246.792 279.105,250.720 279.661 C 255.143 280.286,255.200 280.228,255.200 275.031 C 255.200 270.185,254.247 269.089,251.000 270.200 " stroke="none" fill="#3cc4a4" fill-rule="evenodd"></path></g></svg>